<?xml version="1.0" encoding="UTF-8"?>
<svg id="Logo" xmlns="http://www.w3.org/2000/svg" version="1.1" viewBox="0 0 1793.85 1005.73">
  <!-- Generator: Adobe Illustrator 29.8.1, SVG Export Plug-In . SVG Version: 2.1.1 Build 2)  -->
  <defs>
    <style>
      .st0 {
        fill: #0755be;
      }
    </style>
  </defs>
  <path class="st0" d="M1589.4,706.22v-33.68h16.21l2.53,11.38c.44,2.23,1.13,5.11,1.57,7.72h.17c.43-2.7,1.04-5.5,1.58-7.72l2.44-11.38h16.12v33.68h-10.81v-13.71l.18-8.11h-.18l-1.56,8.01-2.97,13.81h-9.51l-3.13-13.81-1.84-8.01h-.18l.18,8.11v13.71h-10.81ZM1565.68,706.22v-22.87h-8.55v-10.81h29.12v10.81h-8.45v22.87h-12.12Z"/>
  <path class="st0" d="M257.89,846.58c-60.96,0-96.98-31.37-96.98-90.66,0-54.34,34.29-90.66,97.22-90.66,45.16,0,81.68,21.99,90.32,66.94l-61.94,9.39c-2.71-19.27-11.11-30.64-29.61-30.64-11.11,0-18.26,2.97-23.2,9.89-5.68,7.65-7.65,19.76-7.65,35.07s.99,27.18,6.66,34.83c5.18,6.68,13.08,10.14,24.69,10.14,17.77,0,27.14-11.62,30.34-29.4l62.93,13.6c-12.83,39.51-46.64,61.51-92.79,61.51Z"/>
  <path class="st0" d="M347.67,842.39v-172.93h57.5v172.93h-57.5Z"/>
  <path class="st0" d="M411.19,842.39v-126h58.25v126h-58.25ZM414.41,700.83l19.73-37.55h59.23l-29.61,37.55h-49.35Z"/>
  <path class="st0" d="M475.43,842.39v-126h56.51v18.53c6.16-13.59,19.25-22.72,40.47-22.72,14.06,0,24.67,3.21,32.08,10.12,9.13,8.64,12.34,22.72,12.34,41.99v78.07h-58.24v-71.64c0-6.92-.25-11.37-2.97-14.08-2.21-1.98-4.69-2.48-8.64-2.48-7.16,0-13.32,4.69-13.32,19.52v68.68h-58.24Z"/>
  <path class="st0" d="M621.85,842.39v-126h58.24v126h-58.24ZM621.85,704.04v-42.74h58.24v42.74h-58.24Z"/>
  <path class="st0" d="M755.43,846.58c-48.87,0-74.28-25.45-74.28-67.19s25.91-67.19,74.28-67.19c43.19,0,66.39,21.24,71.07,50.88l-54.29,8.15c-1.73-13.09-4.93-22.23-16.04-22.23-4.44,0-7.89,1.48-10.11,4.44-3.45,4.7-4.44,13.1-4.44,25.7,0,21.49,2.71,30.64,14.55,30.64,9.63,0,13.33-7.41,15.31-20.99l56.26,4.94c-3.45,31.37-30.84,52.86-72.3,52.86Z"/>
  <path class="st0" d="M866.21,846.58c-27.15,0-46.39-14.08-46.39-39.53,0-28.16,23.7-34.58,54.3-39.51l33.31-5.44v-3.22c0-4.69-.5-8.64-2.96-11.11-2.22-2.48-4.95-3.22-10.61-3.22-8.64,0-14.06,3.46-13.58,17.55l-55.51-2.97c0-18.52,6.41-29.64,18.25-36.8,13.08-7.66,32.58-10.12,50.59-10.12,43.43,0,69.1,10.37,69.1,45.7v60.53c0,9.87,1.23,17.29,4.69,22.97v1h-56.01c-1.23-3.7-1.98-9.89-1.98-15.57-7.9,12.35-22.95,19.77-43.19,19.77ZM887.68,815.21c9.38,0,19.5-4.94,19.5-19.76v-5.68l-17.52,3.71c-7.65,1.73-14.31,3.7-14.31,11.61,0,6.43,4.2,10.13,12.34,10.13Z"/>
  <path class="st0" d="M996.21,842.39v-172.93h89.57c36.03,0,73.3,7.17,73.3,45.7,0,18.77-11.1,31.37-28.86,38.28,20.97,6.18,33.81,20.26,33.81,41.01,0,41.75-35.3,47.93-78.73,47.93h-89.08ZM1079.62,802.11c14.31,0,23.2-1.23,23.2-14.33,0-14.58-10.86-15.31-21.97-15.31h-23.93v29.64h22.7ZM1077.15,737.15c11.61,0,21.47-1,21.47-14.33s-10.11-14.33-21.47-14.33h-20.22v28.66h20.22Z"/>
  <path class="st0" d="M1204.97,846.58c-27.15,0-46.39-14.08-46.39-39.53,0-28.16,23.68-34.58,54.28-39.51l33.31-5.44v-3.22c0-4.69-.49-8.64-2.96-11.11-2.22-2.48-4.93-3.22-10.61-3.22-8.64,0-14.06,3.46-13.57,17.55l-55.53-2.97c0-18.52,6.41-29.64,18.26-36.8,13.07-7.66,32.57-10.12,50.58-10.12,43.44,0,69.1,10.37,69.1,45.7v60.53c0,9.87,1.24,17.29,4.7,22.97v1h-56.02c-1.23-3.7-1.98-9.89-1.98-15.57-7.89,12.35-22.95,19.77-43.18,19.77ZM1226.44,815.21c9.37,0,19.5-4.94,19.5-19.76v-5.68l-17.53,3.71c-7.64,1.73-14.31,3.7-14.31,11.61,0,6.43,4.2,10.13,12.35,10.13Z"/>
  <path class="st0" d="M1371.01,846.58c-36.27,0-68.85-9.39-72.55-40.76l56.51-4.94c-.73,13.09,7.16,16.79,16.54,16.79s14.81-2.71,14.81-9.38c0-5.68-6.42-7.17-26.4-11.12-32.58-6.43-58-12.85-58-42.24s31.35-42.74,67.37-42.74,64.16,8.64,68.11,38.78l-52.31,5.92c.24-13.33-6.67-16.29-15.56-16.29-7.41,0-12.59,2.71-12.59,9.14s7.16,7.15,23.69,10.37c35.04,6.92,61.69,13.33,61.69,44.47s-33.81,41.99-71.32,41.99Z"/>
  <path class="st0" d="M1511.04,846.58c-23.7,0-42.21-6.42-54.78-17.79-13.08-11.61-19.99-28.41-19.99-49.66s6.91-37.8,20.22-49.4c12.59-11.12,31.1-17.54,54.05-17.54,25.42,0,44.92,7.4,57.25,20.99,12.59,13.33,18.26,32.6,17.27,57.55h-91.06c0,14.58,4.45,22.99,17.52,22.99,10.13,0,14.81-5.68,16.79-15.57l56.02,4.2c-6.67,28.66-33.81,44.22-73.29,44.22ZM1528.06,762.84c-.5-5.43-1.48-9.63-3.7-12.35-2.71-3.71-6.66-5.19-12.84-5.19-6.66,0-10.85,1.73-13.82,5.93-2.21,2.96-3.2,6.42-3.7,11.61h34.06Z"/>
  <path class="st0" d="M1388.81,333.62c0,2.58-.16,5.15-.49,7.7-2.05,16.07-10.47,31.57-24.42,46.19-43.24,45.33-139.54,82.25-263.33,101.9-53.39,8.47-111.91,13.74-173.48,15.06v-15.44c163.3-3.93,291.05-38.88,291.05-81.38,0-8.9-5.6-17.46-15.95-25.48-21.42-16.59-63.17-30.84-117.8-40.86-4.55-.84-9.11-1.62-13.69-2.37v-10.66c.12-.02.24-.04.38-.06,4.44-.73,8.86-1.49,13.28-2.31,54.63-10.01,96.4-24.26,117.82-40.86,10.35-8.02,15.95-16.58,15.95-25.48,0-42.51-127.75-77.44-291.05-81.37v-15.44c61.58,1.32,120.09,6.59,173.48,15.06,124.3,19.73,220.89,56.88,263.86,102.46,13.64,14.46,21.88,29.76,23.9,45.63.32,2.55.49,5.12.49,7.7h0Z"/>
  <path class="st0" d="M574.78,325.92c-.26,2.55-.39,5.12-.39,7.7s.13,5.15.39,7.7c.2,2.06.5,4.12.87,6.16,2.18,12.01,7.19,23.63,14.69,34.7,39.09,57.73,145.98,100.6,275.1,106.53v15.79c-61.81-1.31-120.53-6.57-174.1-15.08-123.79-19.65-220.09-56.58-263.33-101.9-13.94-14.62-22.36-30.11-24.42-46.19-.33-2.55-.49-5.12-.49-7.7s.16-5.15.49-7.7c2.02-15.87,10.26-31.17,23.89-45.63,42.98-45.58,139.56-82.74,263.86-102.46,53.57-8.51,112.29-13.77,174.1-15.08v15.79c-129.12,5.93-236.01,48.79-275.1,106.52-7.67,11.33-12.73,23.22-14.83,35.53-.32,1.77-.55,3.54-.73,5.33Z"/>
</svg>