<?xml version="1.0" encoding="UTF-8"?>
<svg id="Logo" xmlns="http://www.w3.org/2000/svg" version="1.1" viewBox="0 0 1793.85 911.9">
  <!-- Generator: Adobe Illustrator 29.8.1, SVG Export Plug-In . SVG Version: 2.1.1 Build 2)  -->
  <defs>
    <style>
      .st0 {
        fill: #0755be;
      }
    </style>
  </defs>
  <path class="st0" d="M1570.56,456.32c0,3.54-.22,7.06-.67,10.55-2.82,22.02-14.35,43.25-33.47,63.28-59.24,62.1-191.2,112.71-360.81,139.63-73.16,11.61-153.33,18.83-237.7,20.64v-21.15c223.75-5.39,398.79-53.26,398.79-111.5,0-12.19-7.67-23.93-21.86-34.92-29.35-22.73-86.56-42.26-161.4-55.98-6.24-1.15-12.48-2.23-18.75-3.25v-14.61c.17-.02.33-.06.51-.08,6.08-1,12.13-2.05,18.19-3.16,74.85-13.72,132.09-33.24,161.44-55.99,14.18-10.99,21.85-22.72,21.85-34.92,0-58.24-175.04-106.1-398.79-111.49v-21.15c84.37,1.81,164.54,9.03,237.7,20.64,170.32,27.03,302.65,77.93,361.54,140.39,18.68,19.81,29.97,40.77,32.74,62.52.45,3.49.67,7.01.67,10.55h.01Z"/>
  <path class="st0" d="M455.2,445.77c-.36,3.5-.54,7.02-.54,10.56s.18,7.06.54,10.55c.28,2.83.68,5.64,1.19,8.44,3,16.45,9.85,32.38,20.13,47.54,53.55,79.1,200.01,137.83,376.94,145.96v21.63c-84.68-1.79-165.14-9.01-238.55-20.66-169.62-26.92-301.56-77.53-360.81-139.63-19.11-20.03-30.64-41.26-33.46-63.28-.45-3.5-.67-7.02-.67-10.55s.22-7.06.67-10.56c2.77-21.74,14.06-42.71,32.73-62.52,58.9-62.46,191.23-113.36,361.54-140.39,73.4-11.66,153.87-18.87,238.55-20.66v21.63c-176.91,8.13-323.37,66.86-376.94,145.95-10.51,15.52-17.45,31.82-20.32,48.69-.44,2.43-.76,4.85-1,7.3Z"/>
</svg>